<?xml version="1.0" encoding="UTF-8"?>
<svg version="1.1" xmlns="http://www.w3.org/2000/svg" width="206" height="204">
<path d="M0 0 C67.98 0 135.96 0 206 0 C206 67.32 206 134.64 206 204 C138.02 204 70.04 204 0 204 C0 136.68 0 69.36 0 0 Z " fill="#FDFEFE" transform="translate(0,0)"/>
<path d="M0 0 C1.31170166 -0.00833862 1.31170166 -0.00833862 2.64990234 -0.0168457 C19.51736285 0.16818082 35.4086744 6.50963473 47.75 18.125 C50.54082577 21.01090401 52.26911384 23.79906385 54.0625 27.375 C56.97186731 32.56916935 60.57674847 34.25090918 65.9050293 36.63793945 C76.86064174 41.63243102 84.96755552 49.56453891 90.4375 60.3125 C90.79585937 60.993125 91.15421875 61.67375 91.5234375 62.375 C95.58643819 71.91746035 94.75834316 84.90029538 91.3125 94.4375 C88.63975355 100.41364094 85.48082463 105.75468631 80.4296875 110 C78.43466849 111.68989845 76.85415225 113.11082388 75.4375 115.3125 C75.18248221 121.19752592 77.97663626 126.86457028 79.90234375 132.33203125 C80.60551028 134.93426066 80.37915773 136.80141271 79.4375 139.3125 C79.1075 139.6425 78.7775 139.9725 78.4375 140.3125 C71.95330753 140.03730881 67.17249446 137.40057034 61.5625 134.3125 C60.69625 133.8484375 59.83 133.384375 58.9375 132.90625 C52.6307398 129.5057398 52.6307398 129.5057398 51.4375 128.3125 C49.75819786 128.27377593 48.0773037 128.30103062 46.3984375 128.35546875 C24.31091336 128.86976367 8.25331303 125.9172664 -8.50390625 110.42578125 C-13.5625 105.23280361 -13.5625 105.23280361 -13.5625 102.3125 C-14.32916992 102.74183838 -15.09583984 103.17117676 -15.88574219 103.61352539 C-18.73556348 105.20181946 -21.59117639 106.77898813 -24.45117188 108.34887695 C-25.68732981 109.03035279 -26.92108824 109.71620028 -28.15234375 110.40649414 C-29.92354155 111.39850775 -31.70279902 112.37443324 -33.484375 113.34765625 C-34.55268555 113.9394165 -35.62099609 114.53117676 -36.72167969 115.14086914 C-39.5625 116.3125 -39.5625 116.3125 -41.81738281 116.12280273 C-43.5625 115.3125 -43.5625 115.3125 -45.5625 113.3125 C-45.10095271 107.92498441 -43.4007973 102.64830899 -42 97.4375 C-41.64905273 96.11878906 -41.64905273 96.11878906 -41.29101562 94.7734375 C-40.71731145 92.61911979 -40.14107836 90.4655128 -39.5625 88.3125 C-40.18793701 88.0124707 -40.81337402 87.71244141 -41.45776367 87.40332031 C-49.80672394 83.07631016 -54.08038668 72.54563235 -57.5625 64.3125 C-60.57473198 53.47538953 -59.30190329 40.70065439 -54.2734375 30.765625 C-46.60844004 17.2391589 -35.99926649 8.91881188 -21.5625 3.3125 C-20.76972656 2.99152344 -19.97695312 2.67054687 -19.16015625 2.33984375 C-12.83440881 0.19128814 -6.61632584 0.03531023 0 0 Z " fill="#46B6F8" transform="translate(86.5625,35.6875)"/>
<path d="M0 0 C0 1.98 0 3.96 0 6 C0.99 6.33 1.98 6.66 3 7 C5.44375874 12.68805913 4.11410275 20.89250029 4 27 C4.00644531 27.86753906 4.01289063 28.73507813 4.01953125 29.62890625 C3.6317339 39.65623781 -3.51878741 48.39297203 -10.5625 54.97265625 C-23.01490698 65.32970628 -38.22751255 71.73579009 -54.46411133 70.51586914 C-69.92901293 69.50079838 -80.04265944 74.46180094 -92.73950195 82.92016602 C-95 84 -95 84 -97.17260742 83.79663086 C-99 83 -99 83 -101 81 C-100.53845271 75.61248441 -98.8382973 70.33580899 -97.4375 65.125 C-97.08655273 63.80628906 -97.08655273 63.80628906 -96.72851562 62.4609375 C-96.15481145 60.30661979 -95.57857836 58.1530128 -95 56 C-95.62543701 55.6999707 -96.25087402 55.39994141 -96.89526367 55.09082031 C-105.24422394 50.76381016 -109.51788668 40.23313235 -113 32 C-114.1917534 27.75735789 -114.18340699 23.50452555 -114.1875 19.125 C-114.19974609 18.44308594 -114.21199219 17.76117188 -114.22460938 17.05859375 C-114.23808054 12.34368481 -113.47921101 8.47855981 -112 4 C-110.6155239 7.84576695 -111.40375271 11.02501804 -112 15 C-112.40943638 22.7034696 -111.59520302 29.08614803 -108 36 C-106.91869359 38.97481582 -105.94632849 41.9798027 -105 45 C-103.68 44.34 -102.36 43.68 -101 43 C-101.268125 43.53625 -101.53625 44.0725 -101.8125 44.625 C-102.28015569 47.30220218 -102.28015569 47.30220218 -99.8125 50.0625 C-97.73290026 52.36864832 -95.49447798 54.15223853 -93 56 C-93 56.66 -93 57.32 -93 58 C-92.34 58.33 -91.68 58.66 -91 59 C-91.8971875 60.7015625 -91.8971875 60.7015625 -92.8125 62.4375 C-95.69549081 68.22400113 -98.63907998 74.39617355 -98 81 C-96.515 81.495 -96.515 81.495 -95 82 C-94.814375 81.38125 -94.62875 80.7625 -94.4375 80.125 C-92.29567824 76.95882871 -89.61173786 76.93407014 -86 76 C-83.64040542 74.50513154 -83.64040542 74.50513154 -82 73 C-81.01 73.495 -81.01 73.495 -80 74 C-80 73.34 -80 72.68 -80 72 C-77.03 71.01 -74.06 70.02 -71 69 C-71.61875 67.824375 -72.2375 66.64875 -72.875 65.4375 C-77.7977135 56.08434434 -78.46570566 45.0541922 -76.375 34.75 C-71.59375362 21.71023716 -63.34653468 11.5848185 -51 5 C-35.39060136 -1.91191084 -16.55399992 -6.71108105 0 0 Z " fill="#35A4ED" transform="translate(142,68)"/>
<path d="M0 0 C7.44427807 2.00281673 12.90781768 5.30668816 19 10 C19.64066406 10.46277344 20.28132813 10.92554687 20.94140625 11.40234375 C28.40144304 17.16009026 34.50365651 26.63792171 36 36 C37.37500157 49.86547384 35.55159797 62.04314915 26.6328125 73.25 C25 75 25 75 22.9921875 76.6875 C20.99716849 78.37739845 19.41665225 79.79832388 18 82 C17.74498221 87.88502592 20.53913626 93.55207028 22.46484375 99.01953125 C23.16801028 101.62176066 22.94165773 103.48891271 22 106 C21.67 106.33 21.34 106.66 21 107 C14.51580753 106.72480881 9.73499446 104.08807034 4.125 101 C2.825625 100.30390625 2.825625 100.30390625 1.5 99.59375 C-4.8067602 96.1932398 -4.8067602 96.1932398 -6 95 C-7.67930214 94.96127593 -9.3601963 94.98853062 -11.0390625 95.04296875 C-33.12658664 95.55726367 -49.18418697 92.6047664 -65.94140625 77.11328125 C-71 71.92030361 -71 71.92030361 -71 69 C-70.38181396 69.02094727 -69.76362793 69.04189453 -69.12670898 69.06347656 C-47.32222536 69.70293984 -27.6939779 67.00212312 -11.06811523 51.41113281 C-2.75316154 43.07774241 2.23947199 33.15050267 2.2734375 21.3984375 C2.26183594 20.02558594 2.26183594 20.02558594 2.25 18.625 C2.25773437 17.7175 2.26546875 16.81 2.2734375 15.875 C2.25721307 10.24512441 1.59384595 5.40136683 0 0 Z " fill="#82E6C1" transform="translate(144,69)"/>
<path d="M0 0 C55.11 0 110.22 0 167 0 C167 0.33 167 0.66 167 1 C166.35984766 1.00238835 165.71969532 1.00477671 165.06014442 1.00723743 C149.45099402 1.066491 133.84202031 1.14210684 118.23304176 1.23571491 C110.68450954 1.28059341 103.13602365 1.32002617 95.58740234 1.34643555 C89.0045257 1.36948024 82.4217967 1.40294989 75.8390373 1.44870156 C72.35666522 1.47254705 68.87443857 1.49133237 65.39198685 1.49761391 C61.49504924 1.5048391 57.59847449 1.53534912 53.70166016 1.56762695 C52.55941986 1.56619186 51.41717957 1.56475677 50.24032593 1.5632782 C41.25103205 1.66822832 33.26278673 3.14464679 25.5625 8 C24.75941406 8.495 23.95632812 8.99 23.12890625 9.5 C20.98187781 10.91783149 20.98187781 10.91783149 19.33984375 12.6875 C18 14 18 14 16 14 C15.73058594 14.56332031 15.46117187 15.12664063 15.18359375 15.70703125 C13.93348547 18.12885818 12.51972055 20.38486906 11.0625 22.6875 C6.49270936 30.24437329 3.89003572 38.20984954 3.85955811 47.08291626 C3.85384796 48.08359131 3.84813782 49.08426636 3.84225464 50.11526489 C3.84113678 51.20209564 3.84001892 52.28892639 3.83886719 53.40869141 C3.83390228 54.56218079 3.82893738 55.71567017 3.82382202 56.90411377 C3.80921876 60.7199361 3.80240071 64.53571682 3.796875 68.3515625 C3.79257597 70.33671619 3.7882764 72.32186988 3.7839005 74.30702341 C3.77209897 79.84018581 3.76455583 85.3733382 3.7611053 90.9065119 C3.75663254 98.03785927 3.73911732 105.1690142 3.7101047 112.3003031 C3.68840386 117.82834717 3.67839649 123.35633745 3.67706418 128.88442361 C3.67602175 132.17846302 3.6687624 135.47228144 3.65224457 138.76628494 C3.63509723 142.44931655 3.63708603 146.13188554 3.64355469 149.81494141 C3.6343399 150.88962677 3.62512512 151.96431213 3.6156311 153.07156372 C3.69221548 167.06503935 8.10666888 179.70069055 17.7734375 189.96484375 C27.91021107 199.23021047 40.1595037 202.61195481 53.59301758 202.53344727 C54.80108566 202.54206284 56.00915375 202.55067841 57.25382996 202.55955505 C60.53521305 202.57823347 63.81595103 202.57915578 67.09735703 202.57023358 C69.85285082 202.565082 72.60825642 202.57245005 75.3637411 202.57970566 C81.8738405 202.59664341 88.38370519 202.59320276 94.89379883 202.57641602 C101.57240558 202.55951547 108.25035767 202.57531403 114.92889291 202.6076389 C120.69663802 202.63448049 126.4641812 202.64157143 132.23198241 202.63312382 C135.66190639 202.62823486 139.09143744 202.63018702 142.52131081 202.65091133 C161.74601178 202.73903909 177.32190441 202.56178279 191.703125 188.3125 C201.50856855 177.61565249 204.47463212 165.49512743 204.34057617 151.29833984 C204.34101425 150.06792969 204.34145233 148.83751953 204.34190369 147.56982422 C204.3401834 144.22732425 204.32523689 140.88539423 204.30418181 137.54299498 C204.28530722 134.03833445 204.28365614 130.53366469 204.28010559 127.02896118 C204.27081655 120.40643628 204.24624583 113.78406164 204.21605712 107.16160262 C204.1824147 99.61619094 204.16600248 92.07077173 204.15097082 84.5253036 C204.11969306 69.01678234 204.06699442 53.50841062 204 38 C204.66 38.33 205.32 38.66 206 39 C206 93.45 206 147.9 206 204 C138.02 204 70.04 204 0 204 C0 136.68 0 69.36 0 0 Z " fill="#E8E8EA" transform="translate(0,0)"/>
<path d="M0 0 C0.99 0.495 0.99 0.495 2 1 C2 55.45 2 109.9 2 166 C-53.11 166 -108.22 166 -165 166 C-165 165.67 -165 165.34 -165 165 C-164.02984105 164.99918285 -164.02984105 164.99918285 -163.04008293 164.99834919 C-147.24587872 164.98333096 -131.4520211 164.94068181 -115.65798759 164.86790943 C-108.01984389 164.83337074 -100.38187858 164.80791861 -92.74365234 164.80444336 C-86.0801068 164.80138788 -79.41687985 164.78068664 -72.75345719 164.73947543 C-69.23060868 164.71828591 -65.70821148 164.70547131 -62.18529892 164.71384621 C-42.74969184 164.75222949 -26.84627043 164.72841474 -12.296875 150.3125 C-2.49143145 139.61565249 0.47463212 127.49512743 0.34057617 113.29833984 C0.34101425 112.06792969 0.34145233 110.83751953 0.34190369 109.56982422 C0.3401834 106.22732425 0.32523689 102.88539423 0.30418181 99.54299498 C0.28530722 96.03833445 0.28365614 92.53366469 0.28010559 89.02896118 C0.27081655 82.40643628 0.24624583 75.78406164 0.21605712 69.16160262 C0.1824147 61.61619094 0.16600248 54.07077173 0.15097082 46.5253036 C0.11969306 31.01678234 0.06699442 15.50841062 0 0 Z " fill="#E0E1E2" transform="translate(204,38)"/>
<path d="M0 0 C1.44096586 0.42594588 2.87768712 0.86626633 4.3125 1.3125 C5.11300781 1.55613281 5.91351563 1.79976563 6.73828125 2.05078125 C9.09964573 3.04182023 10.33879993 4.08074943 12 6 C11.01 6 10.02 6 9 6 C9.04713135 7.01815796 9.04713135 7.01815796 9.09521484 8.05688477 C9.71093795 23.40449773 9.75386025 35.86920962 1 49 C0.34 49 -0.32 49 -1 49 C-1.24105469 49.56332031 -1.48210937 50.12664062 -1.73046875 50.70703125 C-3.26088068 53.47119065 -5.09807254 55.43585527 -7.3125 57.6875 C-8.07175781 58.47511719 -8.83101562 59.26273438 -9.61328125 60.07421875 C-13.47838401 63.19286958 -17.18134443 63.13767587 -22 63 C-21.6362241 60.30101753 -21.23413242 59.21102064 -19.1796875 57.359375 C-18.41914062 56.82828125 -17.65859375 56.2971875 -16.875 55.75 C-7.79569011 48.97654659 -0.88919439 40.09450644 2 29 C2.28191501 25.53751478 2.27934255 22.09720233 2.25 18.625 C2.25773437 17.7175 2.26546875 16.81 2.2734375 15.875 C2.25721307 10.24512441 1.59384595 5.40136683 0 0 Z " fill="#ACF5D9" transform="translate(144,69)"/>
<path d="M0 0 C0.99 0.33 1.98 0.66 3 1 C2.67 2.32 2.34 3.64 2 5 C3.258125 4.938125 4.51625 4.87625 5.8125 4.8125 C9.70743136 4.82628737 9.70743136 4.82628737 12 6.1875 C13.34419875 8.62386024 13.35131571 10.25973747 13 13 C11 15 11 15 7.125 15.4375 C3.5545306 15.37907414 3.19622257 15.19622257 0.5 12.5 C0.005 11.675 -0.49 10.85 -1 10 C-1.268125 10.598125 -1.53625 11.19625 -1.8125 11.8125 C-3.04266811 14.07859915 -3.97251425 15.41487478 -6 17 C-8.26171875 17.07421875 -8.26171875 17.07421875 -10.6875 16.6875 C-11.49574219 16.56761719 -12.30398437 16.44773437 -13.13671875 16.32421875 C-13.75160156 16.21722656 -14.36648437 16.11023438 -15 16 C-15 13.36 -15 10.72 -15 8 C-14.34 7.67 -13.68 7.34 -13 7 C-12.67 6.01 -12.34 5.02 -12 4 C-6.46153846 3.63076923 -6.46153846 3.63076923 -4.125 5.5 C-3.75375 5.995 -3.3825 6.49 -3 7 C-2.01 6.67 -1.02 6.34 0 6 C0 4.02 0 2.04 0 0 Z " fill="#44A1D8" transform="translate(113,92)"/>
<path d="M0 0 C1.3844761 3.84576695 0.59624729 7.02501804 0 11 C-0.40943638 18.7034696 0.40479698 25.08614803 4 32 C5.08130641 34.97481582 6.05367151 37.9798027 7 41 C8.32 40.34 9.64 39.68 11 39 C10.731875 39.53625 10.46375 40.0725 10.1875 40.625 C9.71984431 43.30220218 9.71984431 43.30220218 12.1875 46.0625 C14.26709974 48.36864832 16.50552202 50.15223853 19 52 C19 52.66 19 53.32 19 54 C19.66 54.33 20.32 54.66 21 55 C20.1028125 56.7015625 20.1028125 56.7015625 19.1875 58.4375 C16.30450919 64.22400113 13.36092002 70.39617355 14 77 C15.485 77.495 15.485 77.495 17 78 C17.185625 77.38125 17.37125 76.7625 17.5625 76.125 C19.70432176 72.95882871 22.38826214 72.93407014 26 72 C28.35959458 70.50513154 28.35959458 70.50513154 30 69 C30.99 69.495 30.99 69.495 32 70 C32 69.34 32 68.68 32 68 C33.11375 67.525625 34.2275 67.05125 35.375 66.5625 C37.26710994 65.74693537 39.15712709 64.92143645 41 64 C42.97637414 63.87772074 44.9573831 63.82450071 46.9375 63.8125 C48.52884766 63.79123047 48.52884766 63.79123047 50.15234375 63.76953125 C53 64 53 64 56 66 C55.195625 65.92136719 54.39125 65.84273438 53.5625 65.76171875 C42.371024 65.528563 34.64356702 69.86993197 25.12695312 75.5144043 C24.13244141 76.1000415 23.13792969 76.68567871 22.11328125 77.2890625 C20.77970581 78.10431396 20.77970581 78.10431396 19.41918945 78.93603516 C17 80 17 80 14.80541992 79.79443359 C13 79 13 79 11 77 C11.46154729 71.61248441 13.1617027 66.33580899 14.5625 61.125 C14.79646484 60.24585938 15.03042969 59.36671875 15.27148438 58.4609375 C15.84518855 56.30661979 16.42142164 54.1530128 17 52 C16.37456299 51.6999707 15.74912598 51.39994141 15.10473633 51.09082031 C6.75577606 46.76381016 2.48211332 36.23313235 -1 28 C-2.1917534 23.75735789 -2.18340699 19.50452555 -2.1875 15.125 C-2.19974609 14.44308594 -2.21199219 13.76117188 -2.22460938 13.05859375 C-2.23808054 8.34368481 -1.47921101 4.47855981 0 0 Z " fill="#3E9DE1" transform="translate(30,72)"/>
<path d="M0 0 C-4.92664617 5.48649233 -12.92358927 8.53131098 -20 10 C-22.33333333 10 -24.66666667 10 -27 10 C-28.0828125 10.556875 -28.0828125 10.556875 -29.1875 11.125 C-29.785625 11.41375 -30.38375 11.7025 -31 12 C-33.25 11.125 -33.25 11.125 -35 10 C-35.33 10.66 -35.66 11.32 -36 12 C-36 10.68 -36 9.36 -36 8 C-34.865625 7.87625 -33.73125 7.7525 -32.5625 7.625 C-31.386875 7.41875 -30.21125 7.2125 -29 7 C-28.67 6.34 -28.34 5.68 -28 5 C-26.03125 4.2890625 -26.03125 4.2890625 -23.5 3.625 C-19.87961821 2.63106873 -16.75884226 1.42725071 -13.4375 -0.3125 C-8.59017914 -2.60632148 -4.925856 -1.72346735 0 0 Z " fill="#8DE4CD" transform="translate(129,132)"/>
<path d="M0 0 C0.88171875 -0.00773437 1.7634375 -0.01546875 2.671875 -0.0234375 C11.37270777 0.00207814 19.25534558 1.34247828 27.25 4.875 C28.27351563 5.32101563 29.29703125 5.76703125 30.3515625 6.2265625 C31.10179687 6.56429687 31.85203125 6.90203125 32.625 7.25 C28.95999526 8.47166825 28.16966818 7.88456842 24.6875 6.4375 C9.80423373 0.77048557 -4.50382082 1.07741594 -19.375 6.25 C-26.27796209 8.51131517 -26.27796209 8.51131517 -30.375 7.25 C-28.54491133 6.45086128 -26.71073034 5.66109245 -24.875 4.875 C-23.8540625 4.43414062 -22.833125 3.99328125 -21.78125 3.5390625 C-14.32921016 0.71890981 -7.90279794 -0.06871998 0 0 Z " fill="#7DD3EE" transform="translate(86.375,35.75)"/>
<path d="M0 0 C9.30889643 4.01316868 14.28219284 14.11071021 18 23 C19.44663552 27.80845502 19.18415372 32.64573511 19.1875 37.625 C19.19974609 38.59179688 19.21199219 39.55859375 19.22460938 40.5546875 C19.22750977 41.93914062 19.22750977 41.93914062 19.23046875 43.3515625 C19.23457764 44.19541504 19.23868652 45.03926758 19.24291992 45.90869141 C19 48 19 48 17 50 C17.00523682 49.38479492 17.01047363 48.76958984 17.01586914 48.13574219 C17.03669371 45.34050524 17.04967759 42.54528464 17.0625 39.75 C17.07087891 38.78191406 17.07925781 37.81382813 17.08789062 36.81640625 C17.09111328 35.88183594 17.09433594 34.94726562 17.09765625 33.984375 C17.10289307 33.12553711 17.10812988 32.26669922 17.11352539 31.38183594 C17.00390712 29.08197381 16.76717391 27.17048178 16 25 C15.34 24.67 14.68 24.34 14 24 C14 22.02 14 20.04 14 18 C12.02 17.67 10.04 17.34 8 17 C8.99 16.01 9.98 15.02 11 14 C7.76109021 10.09425584 4.48102642 6.23401755 1.13671875 2.41796875 C0 1 0 1 0 0 Z " fill="#7ED2EA" transform="translate(128,50)"/>
<path d="M0 0 C1.59134766 -0.02126953 1.59134766 -0.02126953 3.21484375 -0.04296875 C6.0625 0.1875 6.0625 0.1875 9.0625 2.1875 C7.82113281 2.08695313 7.82113281 2.08695313 6.5546875 1.984375 C-4.17855074 1.84528336 -11.39696515 5.56077296 -20.52197266 11.05761719 C-21.87814697 11.86827637 -21.87814697 11.86827637 -23.26171875 12.6953125 C-24.06697998 13.19691895 -24.87224121 13.69852539 -25.7019043 14.21533203 C-28.29106123 15.34124913 -29.34667603 15.18234677 -31.9375 14.1875 C-31.2775 14.1875 -30.6175 14.1875 -29.9375 14.1875 C-29.751875 13.56875 -29.56625 12.95 -29.375 12.3125 C-27.23317824 9.14632871 -24.54923786 9.12157014 -20.9375 8.1875 C-18.57790542 6.69263154 -18.57790542 6.69263154 -16.9375 5.1875 C-16.2775 5.5175 -15.6175 5.8475 -14.9375 6.1875 C-14.9375 5.5275 -14.9375 4.8675 -14.9375 4.1875 C-13.82375 3.713125 -12.71 3.23875 -11.5625 2.75 C-7.14133148 0.84432392 -4.82999394 0.02927269 0 0 Z " fill="#2C94E0" transform="translate(76.9375,135.8125)"/>
<path d="M0 0 C2.4375 0.8125 2.4375 0.8125 4.4375 2.8125 C4.80546448 5.68262296 4.81259409 7.22024618 3.25 9.6875 C1.4375 10.8125 1.4375 10.8125 -1.125 10.625 C-3.5625 9.8125 -3.5625 9.8125 -5.5625 7.8125 C-5.93046448 4.94237704 -5.93759409 3.40475382 -4.375 0.9375 C-2.5625 -0.1875 -2.5625 -0.1875 0 0 Z " fill="#DAF1F9" transform="translate(104.5625,97.1875)"/>
<path d="M0 0 C2.4375 0.8125 2.4375 0.8125 4.4375 2.8125 C4.6875 5.3125 4.6875 5.3125 4.4375 7.8125 C2.4375 9.8125 2.4375 9.8125 -0.5625 10.0625 C-3.5625 9.8125 -3.5625 9.8125 -5.5625 7.8125 C-5.93046448 4.94237704 -5.93759409 3.40475382 -4.375 0.9375 C-2.5625 -0.1875 -2.5625 -0.1875 0 0 Z " fill="#D5F3FB" transform="translate(121.5625,97.1875)"/>
<path d="M0 0 C2.4375 0.8125 2.4375 0.8125 4.4375 2.8125 C4.6875 5.3125 4.6875 5.3125 4.4375 7.8125 C2.4375 9.8125 2.4375 9.8125 -0.5625 10.0625 C-3.5625 9.8125 -3.5625 9.8125 -5.5625 7.8125 C-5.93046448 4.94237704 -5.93759409 3.40475382 -4.375 0.9375 C-2.5625 -0.1875 -2.5625 -0.1875 0 0 Z " fill="#D4F1FA" transform="translate(87.5625,97.1875)"/>
<path d="M0 0 C9.24 0 18.48 0 28 0 C25.56755502 2.43244498 24.60359461 2.35061499 21.25 2.625 C20.35796875 2.70234375 19.4659375 2.7796875 18.546875 2.859375 C16 3 16 3 12.5 2.875 C11.2625 2.936875 11.2625 2.936875 10 3 C9.01 4.485 9.01 4.485 8 6 C5.5625 6.4375 5.5625 6.4375 3 6 C1.02389614 3.95575462 0 2.8823175 0 0 Z " fill="#6FD6CE" transform="translate(73,138)"/>
<path d="M0 0 C1.32 0.33 2.64 0.66 4 1 C-7.8188532 7.2639922 -15.61932262 9.36715273 -29 9 C-29 8.67 -29 8.34 -29 8 C-28.01 7.89042969 -27.02 7.78085938 -26 7.66796875 C-14.68675676 6.92548831 -14.68675676 6.92548831 -5 2 C-3.33382885 1.95936168 -1.66611905 1.957279 0 2 C0 1.34 0 0.68 0 0 Z " fill="#2C94D7" transform="translate(117,129)"/>
<path d="M0 0 C2 1 2 1 3.109375 3.88671875 C4.39383493 8.81677817 4.29193255 13.74914402 4.25 18.8125 C4.25773438 19.76576172 4.26546875 20.71902344 4.2734375 21.70117188 C4.27085937 22.61060547 4.26828125 23.52003906 4.265625 24.45703125 C4.26336914 25.28178955 4.26111328 26.10654785 4.25878906 26.95629883 C4 29 4 29 2 31 C2.00523682 30.38479492 2.01047363 29.76958984 2.01586914 29.13574219 C2.03669371 26.34050524 2.04967759 23.54528464 2.0625 20.75 C2.07087891 19.78191406 2.07925781 18.81382813 2.08789062 17.81640625 C2.09272461 16.41455078 2.09272461 16.41455078 2.09765625 14.984375 C2.10551147 13.69611816 2.10551147 13.69611816 2.11352539 12.38183594 C2.00390712 10.08197381 1.76717391 8.17048178 1 6 C0.34 5.67 -0.32 5.34 -1 5 C-0.67 3.35 -0.34 1.7 0 0 Z " fill="#5BC2E3" transform="translate(143,69)"/>
<path d="M0 0 C0.99 0.33 1.98 0.66 3 1 C2.67 2.32 2.34 3.64 2 5 C3.32 5.33 4.64 5.66 6 6 C5.34 6.66 4.68 7.32 4 8 C3.79127281 10.78302919 3.74359102 12.48718205 5 15 C1.83884224 13.63016497 1.0072908 13.0109362 -1 10 C-1.66 10 -2.32 10 -3 10 C-3 9.34 -3 8.68 -3 8 C-2.01 7.34 -1.02 6.68 0 6 C0.2502157 2.91634129 0.2502157 2.91634129 0 0 Z " fill="#3FACEB" transform="translate(113,92)"/>
<path d="M0 0 C0 0.66 0 1.32 0 2 C-1.32 2 -2.64 2 -4 2 C-4 3.98 -4 5.96 -4 8 C-1.55519921 7.81171228 -1.55519921 7.81171228 1 7 C2.36020151 5.03241727 2.36020151 5.03241727 3 3 C3.22732116 5.80362763 3.34081872 7.46186517 1.8125 9.875 C0 11 0 11 -2.5625 10.8125 C-5 10 -5 10 -7 8 C-7.36962413 5.11693182 -7.4200394 3.60905713 -5.75 1.1875 C-4 0 -4 0 0 0 Z " fill="#B4E9FA" transform="translate(106,97)"/>
<path d="M0 0 C1.32 0.33 2.64 0.66 4 1 C5.26798493 5.68684801 4.91105063 10.03294937 4.5625 14.8125 C4.51029297 15.60076172 4.45808594 16.38902344 4.40429688 17.20117188 C4.27540731 19.13451529 4.13850506 21.06732164 4 23 C3.67 23 3.34 23 3 23 C2.92652344 21.515 2.92652344 21.515 2.8515625 20 C2.47596893 13.14476671 2.02153511 6.60368135 0 0 Z " fill="#97EDDF" transform="translate(144,69)"/>
<path d="M0 0 C-4.93511516 4.72054494 -12.52684319 5.00412972 -19 6 C-13.44471742 1.13912774 -7.21899742 -0.45118734 0 0 Z " fill="#6EC8ED" transform="translate(75,38)"/>
<path d="M0 0 C1.32 0 2.64 0 4 0 C4 0.66 4 1.32 4 2 C5.65 2 7.3 2 9 2 C8.67 3.32 8.34 4.64 8 6 C5.6875 6.25 5.6875 6.25 3 6 C1.02389614 3.95575462 0 2.8823175 0 0 Z " fill="#6AD1BA" transform="translate(73,138)"/>
<path d="M0 0 C2 2 2 2 3 5 C3.99 5 4.98 5 6 5 C6.1546875 4.0409375 6.1546875 4.0409375 6.3125 3.0625 C6.539375 2.381875 6.76625 1.70125 7 1 C7.99 0.67 8.98 0.34 10 0 C10.125 2.375 10.125 2.375 10 5 C8 7 8 7 5 7.25 C2 7 2 7 0 5 C-0.125 2.375 -0.125 2.375 0 0 Z " fill="#C3EBFC" transform="translate(82,100)"/>
<path d="M0 0 C0.1875 3.375 0.1875 3.375 0 7 C-0.99 7.66 -1.98 8.32 -3 9 C-3.99 8.34 -4.98 7.68 -6 7 C-5.01 7 -4.02 7 -3 7 C-3 6.01 -3 5.02 -3 4 C-3.66 4 -4.32 4 -5 4 C-4.67 3.01 -4.34 2.02 -4 1 C-2 0 -2 0 0 0 Z " fill="#2D9DEB" transform="translate(98,100)"/>
<path d="M0 0 C4.875 0.875 4.875 0.875 6 2 C6.36090226 9.45864662 6.36090226 9.45864662 4 13 C1.03 12.505 1.03 12.505 -2 12 C-2 11.67 -2 11.34 -2 11 C-0.02 10.34 1.96 9.68 4 9 C4.33498301 6.66834966 4.33498301 6.66834966 4 4 C2.10415891 1.68622853 2.10415891 1.68622853 0 0 Z " fill="#5CB3E2" transform="translate(121,96)"/>
<path d="M0 0 C1 3 1 3 -0.109375 5.41015625 C-0.65078125 6.28542969 -1.1921875 7.16070312 -1.75 8.0625 C-2.28109375 8.94035156 -2.8121875 9.81820312 -3.359375 10.72265625 C-5 13 -5 13 -8 15 C-7.67 13.68 -7.34 12.36 -7 11 C-6.34 11 -5.68 11 -5 11 C-4.87625 10.2265625 -4.87625 10.2265625 -4.75 9.4375 C-3.67859775 5.95544268 -1.86476395 3.12799115 0 0 Z " fill="#A3E9CC" transform="translate(176,129)"/>
<path d="M0 0 C0.66 0.33 1.32 0.66 2 1 C-0.80627778 5.74908547 -3.25091453 8.19372222 -8 11 C-6.63629701 8.00779732 -5.05091917 5.70973471 -2.875 3.25 C-2.33617187 2.63640625 -1.79734375 2.0228125 -1.2421875 1.390625 C-0.62730469 0.70226563 -0.62730469 0.70226563 0 0 Z " fill="#64BAE7" transform="translate(44,51)"/>
<path d="M0 0 C0.33 1.32 0.66 2.64 1 4 C1.66 4 2.32 4 3 4 C3 4.99 3 5.98 3 7 C1.68 7 0.36 7 -1 7 C-1 7.66 -1 8.32 -1 9 C-3.97 8.505 -3.97 8.505 -7 8 C-7 7.67 -7 7.34 -7 7 C-5.02 6.34 -3.04 5.68 -1 5 C-0.67 3.35 -0.34 1.7 0 0 Z " fill="#46A2DD" transform="translate(92,100)"/>
<path d="M0 0 C-1.10699901 3.21029714 -2.01603825 4.00968977 -5 5.8125 C-5.99 6.204375 -6.98 6.59625 -8 7 C-8.66 6.67 -9.32 6.34 -10 6 C-8.71283353 4.99421411 -7.42011342 3.99553202 -6.125 3 C-5.40570313 2.443125 -4.68640625 1.88625 -3.9453125 1.3125 C-2 0 -2 0 0 0 Z " fill="#63BFEC" transform="translate(56,44)"/>
<path d="M0 0 C-1 3 -1 3 -4 5 C-6.6875 5.125 -6.6875 5.125 -9 5 C-6.45523312 2.20075644 -3.92372883 0 0 0 Z " fill="#D5F3FB" transform="translate(73,138)"/>
<path d="M0 0 C0.33 0.66 0.66 1.32 1 2 C0.3125 4.0625 0.3125 4.0625 -1 6 C-3.125 6.75 -3.125 6.75 -5 7 C-4.60196439 4.11424181 -4.20990931 3.17810487 -1.9375 1.25 C-1.298125 0.8375 -0.65875 0.425 0 0 Z " fill="#9FE9DF" transform="translate(127,125)"/>
<path d="M0 0 C-0.66 2.64 -1.32 5.28 -2 8 C-2.33 8 -2.66 8 -3 8 C-3 6.35 -3 4.7 -3 3 C-3.66 3 -4.32 3 -5 3 C-5.33 3.66 -5.66 4.32 -6 5 C-5.6875 3.0625 -5.6875 3.0625 -5 1 C-2 0 -2 0 0 0 Z " fill="#3798DD" transform="translate(84,97)"/>
<path d="M0 0 C2.97 0.495 2.97 0.495 6 1 C6.33 1.99 6.66 2.98 7 4 C6.34 4.66 5.68 5.32 5 6 C5 5.01 5 4.02 5 3 C2.03 2.505 2.03 2.505 -1 2 C-0.67 1.34 -0.34 0.68 0 0 Z " fill="#6BCFF3" transform="translate(137,65)"/>
<path d="M0 0 C1.32 0.33 2.64 0.66 4 1 C3.34 1.66 2.68 2.32 2 3 C1.79127281 5.78302919 1.74359102 7.48718205 3 10 C2.01 9.67 1.02 9.34 0 9 C0 6.03 0 3.06 0 0 Z " fill="#59AFDD" transform="translate(115,97)"/>
<path d="M0 0 C3.0831351 1.19899698 6.06279492 2.47700477 9 4 C9 4.99 9 5.98 9 7 C5.18315774 5.44499019 2.80804268 2.96404505 0 0 Z " fill="#E3FCF1" transform="translate(158,75)"/>
<path d="M0 0 C-1 3 -1 3 -3 4 C-4.99960012 4.039992 -7.00047242 4.04346799 -9 4 C-3 0 -3 0 0 0 Z " fill="#8CE2DF" transform="translate(122,130)"/>
<path d="M0 0 C2.4375 0.375 2.4375 0.375 5 1 C5.33 1.66 5.66 2.32 6 3 C5.01 3 4.02 3 3 3 C2.67 3.99 2.34 4.98 2 6 C2 5.01 2 4.02 2 3 C1.34 3 0.68 3 0 3 C0 2.01 0 1.02 0 0 Z " fill="#9AF0CA" transform="translate(150,72)"/>
</svg>
